<svg width="95" height="95" viewBox="0 0 95 95" fill="none" xmlns="http://www.w3.org/2000/svg">
<path d="M47.4994 7.91675C39.6705 7.91675 32.0175 10.2383 25.508 14.5877C18.9986 18.9372 13.9251 25.1193 10.9291 32.3522C7.93317 39.5851 7.14928 47.544 8.67662 55.2224C10.2039 62.9008 13.9739 69.9539 19.5097 75.4897C25.0456 81.0256 32.0986 84.7955 39.777 86.3228C47.4555 87.8502 55.4143 87.0663 62.6473 84.0703C69.8802 81.0743 76.0622 76.0008 80.4117 69.4914C84.7612 62.982 87.0827 55.3289 87.0827 47.5001C87.0827 42.3019 86.0588 37.1547 84.0696 32.3522C82.0804 27.5497 79.1647 23.1861 75.489 19.5104C71.8134 15.8348 67.4497 12.9191 62.6473 10.9299C57.8448 8.9406 52.6975 7.91675 47.4994 7.91675ZM39.5827 65.3126V29.6876L63.3327 47.5001L39.5827 65.3126Z" fill="url(#paint0_linear_17_605)"/>
<defs>
<linearGradient id="paint0_linear_17_605" x1="87" y1="0.499999" x2="8" y2="93.5" gradientUnits="userSpaceOnUse">
<stop stop-color="#F10283"/>
<stop offset="0.515625" stop-color="#FF0048"/>
<stop offset="1" stop-color="#840036"/>
</linearGradient>
</defs>
</svg>
